<mxfile host="65bd71144e">
    <diagram name="Page-1" id="9f46799a-70d6-7492-0946-bef42562c5a5">
        <mxGraphModel dx="1679" dy="1150" grid="1" gridSize="10" guides="1" tooltips="1" connect="1" arrows="1" fold="1" page="1" pageScale="1" pageWidth="1100" pageHeight="850" background="none" math="0" shadow="0">
            <root>
                <mxCell id="0"/>
                <mxCell id="1" parent="0"/>
                <mxCell id="78961159f06e98e8-17" value="Book" style="swimlane;html=1;fontStyle=1;align=center;verticalAlign=top;childLayout=stackLayout;horizontal=1;startSize=26;horizontalStack=0;resizeParent=1;resizeLast=0;collapsible=1;marginBottom=0;swimlaneFillColor=#ffffff;rounded=0;shadow=0;comic=0;labelBackgroundColor=none;strokeWidth=1;fillColor=none;fontFamily=Verdana;fontSize=12;fontColor=#000000;" parent="1" vertex="1">
                    <mxGeometry x="90" y="355" width="160" height="227" as="geometry"/>
                </mxCell>
                <mxCell id="78961159f06e98e8-21" value="-int BOOKID" style="text;html=1;strokeColor=none;fillColor=none;align=left;verticalAlign=top;spacingLeft=4;spacingRight=4;whiteSpace=wrap;overflow=hidden;rotatable=0;points=[[0,0.5],[1,0.5]];portConstraint=eastwest;fontColor=#000000;" parent="78961159f06e98e8-17" vertex="1">
                    <mxGeometry y="26" width="160" height="26" as="geometry"/>
                </mxCell>
                <mxCell id="Kg9aBgfZ_xzIvf3eY_e4-3" value="-String title" style="text;html=1;strokeColor=none;fillColor=none;align=left;verticalAlign=top;spacingLeft=4;spacingRight=4;whiteSpace=wrap;overflow=hidden;rotatable=0;points=[[0,0.5],[1,0.5]];portConstraint=eastwest;fontColor=#000000;" parent="78961159f06e98e8-17" vertex="1">
                    <mxGeometry y="52" width="160" height="26" as="geometry"/>
                </mxCell>
                <mxCell id="78961159f06e98e8-23" value="-String author" style="text;html=1;strokeColor=none;fillColor=none;align=left;verticalAlign=top;spacingLeft=4;spacingRight=4;whiteSpace=wrap;overflow=hidden;rotatable=0;points=[[0,0.5],[1,0.5]];portConstraint=eastwest;fontColor=#000000;" parent="78961159f06e98e8-17" vertex="1">
                    <mxGeometry y="78" width="160" height="26" as="geometry"/>
                </mxCell>
                <mxCell id="78961159f06e98e8-19" value="" style="line;html=1;strokeWidth=1;fillColor=none;align=left;verticalAlign=middle;spacingTop=-1;spacingLeft=3;spacingRight=3;rotatable=0;labelPosition=right;points=[];portConstraint=eastwest;fontColor=#000000;" parent="78961159f06e98e8-17" vertex="1">
                    <mxGeometry y="104" width="160" height="8" as="geometry"/>
                </mxCell>
                <mxCell id="78961159f06e98e8-20" value="+getTitle():String" style="text;html=1;strokeColor=none;fillColor=none;align=left;verticalAlign=top;spacingLeft=4;spacingRight=4;whiteSpace=wrap;overflow=hidden;rotatable=0;points=[[0,0.5],[1,0.5]];portConstraint=eastwest;fontColor=#000000;" parent="78961159f06e98e8-17" vertex="1">
                    <mxGeometry y="112" width="160" height="26" as="geometry"/>
                </mxCell>
                <mxCell id="Kg9aBgfZ_xzIvf3eY_e4-4" value="+getAuthor():void&lt;span style=&quot;font-family: monospace; font-size: 0px;&quot;&gt;%3CmxGraphModel%3E%3Croot%3E%3CmxCell%20id%3D%220%22%2F%3E%3CmxCell%20id%3D%221%22%20parent%3D%220%22%2F%3E%3CmxCell%20id%3D%222%22%20value%3D%22%2BsetTitle%26lt%3Bspan%20style%3D%26quot%3Bcolor%3A%20rgba(0%20%2C%200%20%2C%200%20%2C%200)%20%3B%20font-family%3A%20monospace%20%3B%20font-size%3A%200px%26quot%3B%26gt%3B%253CmxGraphModel%253E%253Croot%253E%253CmxCell%2520id%253D%25220%2522%252F%253E%253CmxCell%2520id%253D%25221%2522%2520parent%253D%25220%2522%252F%253E%253CmxCell%2520id%253D%25222%2522%2520value%253D%2522%252BString%2520title%2522%2520style%253D%2522text%253Bhtml%253D1%253BstrokeColor%253Dnone%253BfillColor%253Dnone%253Balign%253Dleft%253BverticalAlign%253Dtop%253BspacingLeft%253D4%253BspacingRight%253D4%253BwhiteSpace%253Dwrap%253Boverflow%253Dhidden%253Brotatable%253D0%253Bpoints%253D%255B%255B0%252C0.5%255D%252C%255B1%252C0.5%255D%255D%253BportConstraint%253Deastwest%253B%2522%2520vertex%253D%25221%2522%2520parent%253D%25221%2522%253E%253CmxGeometry%2520x%253D%252290%2522%2520y%253D%2522109%2522%2520width%253D%2522160%2522%2520height%253D%252226%2522%2520as%253D%2522geometry%2522%252F%253E%253C%252FmxCell%253E%253C%252Froot%253E%253C%252FmxGraphModel%253E%26lt%3B%2Fspan%26gt%3B%22%20style%3D%22text%3Bhtml%3D1%3BstrokeColor%3Dnone%3BfillColor%3Dnone%3Balign%3Dleft%3BverticalAlign%3Dtop%3BspacingLeft%3D4%3BspacingRight%3D4%3BwhiteSpace%3Dwrap%3Boverflow%3Dhidden%3Brotatable%3D0%3Bpoints%3D%5B%5B0%2C0.5%5D%2C%5B1%2C0.5%5D%5D%3BportConstraint%3Deastwest%3B%22%20vertex%3D%221%22%20parent%3D%221%22%3E%3CmxGeometry%20x%3D%2290%22%20y%3D%22221%22%20width%3D%22160%22%20height%3D%2226%22%20as%3D%22geometry%22%2F%3E%3C%2FmxCell%3E%3C%2Froot%3E%3C%2FmxGraphModel%3E()&lt;/span&gt;" style="text;html=1;strokeColor=none;fillColor=none;align=left;verticalAlign=top;spacingLeft=4;spacingRight=4;whiteSpace=wrap;overflow=hidden;rotatable=0;points=[[0,0.5],[1,0.5]];portConstraint=eastwest;fontColor=#000000;" parent="78961159f06e98e8-17" vertex="1">
                    <mxGeometry y="138" width="160" height="26" as="geometry"/>
                </mxCell>
                <mxCell id="78961159f06e98e8-27" value="+setTitle():String&lt;span style=&quot;font-family: monospace; font-size: 0px;&quot;&gt;%3CmxGraphModel%3E%3Croot%3E%3CmxCell%20id%3D%220%22%2F%3E%3CmxCell%20id%3D%221%22%20parent%3D%220%22%2F%3E%3CmxCell%20id%3D%222%22%20value%3D%22%2BString%20title%22%20style%3D%22text%3Bhtml%3D1%3BstrokeColor%3Dnone%3BfillColor%3Dnone%3Balign%3Dleft%3BverticalAlign%3Dtop%3BspacingLeft%3D4%3BspacingRight%3D4%3BwhiteSpace%3Dwrap%3Boverflow%3Dhidden%3Brotatable%3D0%3Bpoints%3D%5B%5B0%2C0.5%5D%2C%5B1%2C0.5%5D%5D%3BportConstraint%3Deastwest%3B%22%20vertex%3D%221%22%20parent%3D%221%22%3E%3CmxGeometry%20x%3D%2290%22%20y%3D%22109%22%20width%3D%22160%22%20height%3D%2226%22%20as%3D%22geometry%22%2F%3E%3C%2FmxCell%3E%3C%2Froot%3E%3C%2FmxGraphModel%3E():void&lt;/span&gt;" style="text;html=1;strokeColor=none;fillColor=none;align=left;verticalAlign=top;spacingLeft=4;spacingRight=4;whiteSpace=wrap;overflow=hidden;rotatable=0;points=[[0,0.5],[1,0.5]];portConstraint=eastwest;fontColor=#000000;" parent="78961159f06e98e8-17" vertex="1">
                    <mxGeometry y="164" width="160" height="30" as="geometry"/>
                </mxCell>
                <mxCell id="Kg9aBgfZ_xzIvf3eY_e4-5" value="+setAuthor():void" style="text;html=1;strokeColor=none;fillColor=none;align=left;verticalAlign=top;spacingLeft=4;spacingRight=4;whiteSpace=wrap;overflow=hidden;rotatable=0;points=[[0,0.5],[1,0.5]];portConstraint=eastwest;fontColor=#000000;" parent="78961159f06e98e8-17" vertex="1">
                    <mxGeometry y="194" width="160" height="26" as="geometry"/>
                </mxCell>
                <mxCell id="78961159f06e98e8-30" value="Library" style="swimlane;html=1;fontStyle=1;align=center;verticalAlign=top;childLayout=stackLayout;horizontal=1;startSize=26;horizontalStack=0;resizeParent=1;resizeLast=0;collapsible=1;marginBottom=0;swimlaneFillColor=#ffffff;rounded=0;shadow=0;comic=0;labelBackgroundColor=none;strokeWidth=1;fontFamily=Verdana;fontSize=12;fontColor=#000000;" parent="1" vertex="1">
                    <mxGeometry x="380" y="375" width="300" height="187" as="geometry"/>
                </mxCell>
                <mxCell id="78961159f06e98e8-31" value="-book: arrayList" style="text;html=1;align=left;verticalAlign=top;spacingLeft=4;spacingRight=4;whiteSpace=wrap;overflow=hidden;rotatable=0;points=[[0,0.5],[1,0.5]];portConstraint=eastwest;fontColor=#000000;" parent="78961159f06e98e8-30" vertex="1">
                    <mxGeometry y="26" width="300" height="26" as="geometry"/>
                </mxCell>
                <mxCell id="78961159f06e98e8-38" value="" style="line;html=1;strokeWidth=1;align=left;verticalAlign=middle;spacingTop=-1;spacingLeft=3;spacingRight=3;rotatable=0;labelPosition=right;points=[];portConstraint=eastwest;fontColor=#000000;" parent="78961159f06e98e8-30" vertex="1">
                    <mxGeometry y="52" width="300" height="8" as="geometry"/>
                </mxCell>
                <mxCell id="78961159f06e98e8-40" value="+returnBook(ArrayList&amp;lt;Book&amp;gt;):void" style="text;html=1;align=left;verticalAlign=top;spacingLeft=4;spacingRight=4;whiteSpace=wrap;overflow=hidden;rotatable=0;points=[[0,0.5],[1,0.5]];portConstraint=eastwest;fontColor=#000000;" parent="78961159f06e98e8-30" vertex="1">
                    <mxGeometry y="60" width="300" height="26" as="geometry"/>
                </mxCell>
                <mxCell id="78961159f06e98e8-39" value="+borrowBooks(Book book):void" style="text;html=1;align=left;verticalAlign=top;spacingLeft=4;spacingRight=4;whiteSpace=wrap;overflow=hidden;rotatable=0;points=[[0,0.5],[1,0.5]];portConstraint=eastwest;fontColor=#000000;" parent="78961159f06e98e8-30" vertex="1">
                    <mxGeometry y="86" width="300" height="26" as="geometry"/>
                </mxCell>
                <mxCell id="78961159f06e98e8-42" value="+searchBook(String bookName):boolean" style="text;html=1;align=left;verticalAlign=top;spacingLeft=4;spacingRight=4;whiteSpace=wrap;overflow=hidden;rotatable=0;points=[[0,0.5],[1,0.5]];portConstraint=eastwest;fontColor=#000000;" parent="78961159f06e98e8-30" vertex="1">
                    <mxGeometry y="112" width="300" height="26" as="geometry"/>
                </mxCell>
                <mxCell id="Kg9aBgfZ_xzIvf3eY_e4-1" value="(+borrowedBook(Book book):boolean)" style="text;html=1;align=left;verticalAlign=top;spacingLeft=4;spacingRight=4;whiteSpace=wrap;overflow=hidden;rotatable=0;points=[[0,0.5],[1,0.5]];portConstraint=eastwest;fontColor=#000000;" parent="78961159f06e98e8-30" vertex="1">
                    <mxGeometry y="138" width="300" height="26" as="geometry"/>
                </mxCell>
                <mxCell id="78961159f06e98e8-43" value="Patron" style="swimlane;html=1;fontStyle=1;align=center;verticalAlign=top;childLayout=stackLayout;horizontal=1;startSize=26;horizontalStack=0;resizeParent=1;resizeLast=0;collapsible=1;marginBottom=0;swimlaneFillColor=#ffffff;rounded=0;shadow=0;comic=0;labelBackgroundColor=none;strokeWidth=1;fillColor=none;fontFamily=Verdana;fontSize=12;fontColor=#000000;" parent="1" vertex="1">
                    <mxGeometry x="780" y="375" width="260" height="197" as="geometry"/>
                </mxCell>
                <mxCell id="78961159f06e98e8-51" value="" style="line;html=1;strokeWidth=1;fillColor=none;align=left;verticalAlign=middle;spacingTop=-1;spacingLeft=3;spacingRight=3;rotatable=0;labelPosition=right;points=[];portConstraint=eastwest;fontColor=#000000;" parent="78961159f06e98e8-43" vertex="1">
                    <mxGeometry y="26" width="260" height="8" as="geometry"/>
                </mxCell>
                <mxCell id="78961159f06e98e8-52" value="+searchLibrary(String bookName):boolean" style="text;html=1;strokeColor=none;fillColor=none;align=left;verticalAlign=top;spacingLeft=4;spacingRight=4;whiteSpace=wrap;overflow=hidden;rotatable=0;points=[[0,0.5],[1,0.5]];portConstraint=eastwest;fontColor=#000000;" parent="78961159f06e98e8-43" vertex="1">
                    <mxGeometry y="34" width="260" height="26" as="geometry"/>
                </mxCell>
                <mxCell id="78961159f06e98e8-53" value="+borrowBook(Book book):void" style="text;html=1;strokeColor=none;fillColor=none;align=left;verticalAlign=top;spacingLeft=4;spacingRight=4;whiteSpace=wrap;overflow=hidden;rotatable=0;points=[[0,0.5],[1,0.5]];portConstraint=eastwest;fontColor=#000000;" parent="78961159f06e98e8-43" vertex="1">
                    <mxGeometry y="60" width="260" height="26" as="geometry"/>
                </mxCell>
                <mxCell id="Kg9aBgfZ_xzIvf3eY_e4-2" value="+returnBook(ArrayList&amp;lt;Book&amp;gt;):void" style="text;html=1;strokeColor=none;fillColor=none;align=left;verticalAlign=top;spacingLeft=4;spacingRight=4;whiteSpace=wrap;overflow=hidden;rotatable=0;points=[[0,0.5],[1,0.5]];portConstraint=eastwest;fontColor=#000000;" parent="78961159f06e98e8-43" vertex="1">
                    <mxGeometry y="86" width="260" height="26" as="geometry"/>
                </mxCell>
                <mxCell id="Kg9aBgfZ_xzIvf3eY_e4-11" value="" style="endArrow=none;endFill=0;html=1;rounded=0;startArrow=block;startFill=1;entryX=0.997;entryY=0.691;entryDx=0;entryDy=0;entryPerimeter=0;exitX=0;exitY=0.5;exitDx=0;exitDy=0;fontColor=#000000;" parent="1" target="78961159f06e98e8-40" edge="1" source="78961159f06e98e8-53">
                    <mxGeometry width="160" relative="1" as="geometry">
                        <mxPoint x="740" y="160" as="sourcePoint"/>
                        <mxPoint x="720" y="150" as="targetPoint"/>
                    </mxGeometry>
                </mxCell>
                <mxCell id="Kg9aBgfZ_xzIvf3eY_e4-17" value="" style="endArrow=open;endFill=1;endSize=12;html=1;rounded=0;entryX=0;entryY=0.5;entryDx=0;entryDy=0;exitX=1;exitY=0.5;exitDx=0;exitDy=0;fontColor=#000000;" parent="1" target="78961159f06e98e8-40" edge="1" source="78961159f06e98e8-23">
                    <mxGeometry width="160" relative="1" as="geometry">
                        <mxPoint x="221" y="190" as="sourcePoint"/>
                        <mxPoint x="381" y="190" as="targetPoint"/>
                        <Array as="points"/>
                    </mxGeometry>
                </mxCell>
            </root>
        </mxGraphModel>
    </diagram>
</mxfile>